<?xml version="1.0" standalone="no"?>
<!DOCTYPE svg PUBLIC "-//W3C//DTD SVG 20010904//EN"
 "http://www.w3.org/TR/2001/REC-SVG-20010904/DTD/svg10.dtd">
<svg version="1.0" xmlns="http://www.w3.org/2000/svg"
 width="700.000000pt" height="700.000000pt" viewBox="0 0 700.000000 700.000000"
 preserveAspectRatio="xMidYMid meet">
<g transform="translate(0.000000,700.000000) scale(0.100000,-0.100000)"
fill="#000000" stroke="none">
<path d="M1420 6725 c-205 -40 -381 -131 -531 -276 -63 -61 -129 -141 -129
-156 0 -6 -7 -16 -16 -24 -45 -37 -128 -259 -147 -394 -11 -72 -13 -534 -12
-2265 l2 -2175 25 -96 c109 -405 409 -686 814 -763 110 -20 1089 -21 1163 0
113 32 196 116 225 225 39 151 -32 307 -172 376 l-57 28 -505 2 c-337 2 -524
7 -563 14 -109 22 -203 101 -260 219 l-22 45 0 2165 0 2165 32 66 c51 105 156
186 261 204 42 7 2872 9 2902 2 105 -24 192 -83 245 -167 53 -84 50 4 55
-1570 l5 -1465 27 -58 c126 -269 513 -245 603 38 14 46 15 197 12 1525 -2 811
-6 1486 -9 1500 -13 61 -42 166 -48 180 -4 8 -24 51 -45 95 -67 143 -157 258
-278 353 -129 102 -250 158 -452 209 -16 4 -712 8 -1545 9 -1178 1 -1529 -1
-1580 -11z"/>
<path d="M2259 5289 c-62 -9 -109 -31 -147 -70 -129 -128 -97 -336 65 -415
l58 -29 750 0 750 1 51 26 c129 67 180 214 118 343 -28 61 -68 99 -134 128
-44 20 -66 20 -756 21 -391 1 -731 -2 -755 -5z"/>
<path d="M2220 3901 c-104 -33 -181 -128 -189 -234 -8 -108 76 -231 179 -261
78 -23 782 -22 853 1 45 15 149 95 145 111 -1 4 4 18 11 31 8 14 16 52 19 87
8 101 -47 196 -143 248 -39 20 -52 21 -445 23 -223 1 -416 -2 -430 -6z"/>
<path d="M6000 2231 c-25 -9 -59 -24 -76 -33 -17 -9 -297 -283 -623 -608
l-591 -592 -243 242 c-133 134 -258 253 -277 266 -19 13 -60 30 -90 37 -229
59 -442 -139 -399 -369 18 -96 38 -120 432 -514 334 -335 390 -386 444 -412
48 -23 76 -29 125 -29 72 0 148 22 193 56 54 40 1447 1439 1470 1476 76 118
61 283 -34 392 -74 84 -228 125 -331 88z"/>
</g>
</svg>
